<svg width="194" height="64" viewBox="0 0 194 64" fill="none" xmlns="http://www.w3.org/2000/svg">
<path d="M62.4029 0.928711H0V63.2911H62.4029V0.928711Z" fill="#E8222E"/>
<path d="M31.8065 30.5142H28.0882V33.99H31.8065V30.5142Z" fill="white"/>
<path d="M26.0295 30.5142H22.3112V33.99H26.0295V30.5142Z" fill="white"/>
<path d="M19.2777 36.6569H16.1252V35.3231C16.1252 34.0298 16.5698 33.5852 17.7419 33.5852C18.2269 33.5852 18.7927 33.6256 19.2777 33.6661V30.5136C18.5502 30.4732 17.7823 30.3923 17.0548 30.3923C13.6194 30.3923 11.9219 32.3323 11.9219 35.0806V36.6569H9.37567V39.6073H11.9219V52.0151H16.1656V39.6073H19.3181V36.6569H19.2777Z" fill="white"/>
<path d="M29.546 46.0745C29.546 47.0445 29.4248 49.6311 26.1106 49.6311C24.7365 49.6311 23.524 49.227 23.524 47.6507C23.524 46.1149 24.7365 45.6299 26.0298 45.3874C27.3231 45.1449 28.8185 45.1045 29.546 44.4982V46.0745ZM47.41 36.2129C45.268 36.2129 43.6917 37.4254 42.7622 38.7591C41.9134 36.9 40.2159 36.2129 38.2759 36.2129C36.2551 36.2129 34.5172 37.1829 33.426 38.84C32.456 36.6575 29.5056 36.2129 26.9998 36.2129C23.5644 36.2129 20.0078 37.4254 19.7653 41.3458H24.009C24.1706 39.6887 25.181 39.042 26.7977 39.042C28.2931 39.042 29.546 39.3249 29.546 41.1033C29.7077 44.5387 19.3611 40.8204 19.3207 47.8124C19.3207 50.9649 21.6244 52.4198 24.5748 52.4198C26.4744 52.4198 28.4144 51.8944 29.7481 50.5203V52.0157H33.7897V43.0837C33.7897 40.0929 35.8106 39.527 36.6593 39.527C39.3268 39.527 39.2055 41.5883 39.2055 43.3666V51.9753H43.4492V43.407C43.4492 41.5074 43.8938 39.527 46.2784 39.527C48.7034 39.527 48.865 41.2245 48.865 43.2858V52.0157H53.0683V41.7499C53.0279 37.7487 50.6838 36.2129 47.41 36.2129Z" fill="white"/>
<path d="M51.3685 31.9285C51.6514 31.9285 51.9343 31.9285 51.9343 31.6052C51.9343 31.3627 51.7322 31.2819 51.4897 31.2819H51.0452V31.9285H51.3685ZM51.0452 32.9794H50.8027V31.0798H51.5301C51.9747 31.0798 52.1364 31.2819 52.1364 31.6052C52.1364 31.9285 51.9343 32.0902 51.6514 32.1306L52.2172 32.9794H51.9747L51.4493 32.1306H51.0452V32.9794ZM50.0347 32.0094C50.0347 32.7773 50.6006 33.4239 51.4089 33.4239C52.2172 33.4239 52.7831 32.8177 52.7831 32.0094C52.7831 31.2415 52.1768 30.5948 51.4089 30.5948C50.6006 30.6352 50.0347 31.2415 50.0347 32.0094ZM53.0256 32.0094C53.0256 32.9389 52.2981 33.626 51.3685 33.626C50.4389 33.626 49.7518 32.8985 49.7518 32.0094C49.7518 31.0798 50.4793 30.3523 51.3685 30.3523C52.3385 30.3927 53.0256 31.1202 53.0256 32.0094Z" fill="white"/>
<path d="M80.3465 30.9992H78.0428C77.9216 30.9992 77.8811 31.0396 77.8811 31.1204V42.5178C78.7299 42.922 79.6595 43.0028 80.872 43.0028C83.5394 43.0028 85.1157 41.6287 85.1157 37.2233C85.0753 32.8583 83.0544 30.9992 80.3465 30.9992ZM80.8315 43.4878C79.5786 43.4878 78.6491 43.3261 77.8407 43.1241V51.4094C77.8407 51.4902 77.8811 51.5307 78.0024 51.5307H80.5486C80.589 51.5307 80.589 52.0157 80.5486 52.0157H71.7783C71.6974 52.0157 71.6974 51.5307 71.7783 51.5307H74.3245C74.4053 51.5307 74.4862 51.4902 74.4862 51.4094V31.1204C74.4862 31.0396 74.4458 30.9992 74.3245 30.9992H71.7783C71.6974 30.9992 71.6974 30.5142 71.7783 30.5142H80.3061C85.5198 30.5142 88.349 33.5454 88.349 37.2637C88.3894 40.9012 85.3582 43.4878 80.8315 43.4878Z" fill="black"/>
<path d="M98.6978 42.7182C97.8491 42.7182 97.3237 42.2332 97.3237 41.6674C97.3237 40.9803 97.6874 40.8995 97.6874 40.3741C97.6874 39.8487 97.3641 39.5658 96.8791 39.5658C95.9495 39.5658 95.1816 40.2124 94.6158 42.4353V51.4078C94.6158 51.4886 94.6966 51.529 94.8178 51.529H96.5153C96.5557 51.529 96.5557 52.014 96.5153 52.014H90.17C90.1295 52.014 90.1295 51.529 90.17 51.529H91.827C91.9887 51.529 92.0291 51.4886 92.0291 51.4078V39.687C92.0291 39.6062 91.9483 39.5658 91.827 39.5658H90.17C90.1295 39.5658 90.1295 39.0808 90.17 39.0808H94.5349C94.6158 39.0808 94.6158 39.1212 94.6158 39.1616V41.1824C95.1816 39.4041 96.1516 38.7979 97.7278 38.7979C99.2232 38.7979 99.9911 39.8083 99.9911 41.0208C100.032 42.112 99.4253 42.7182 98.6978 42.7182Z" fill="black"/>
<path d="M109.851 39.9699C109.285 39.4445 108.558 39.3233 107.588 39.3233C106.698 39.3233 105.93 39.4849 105.365 39.9699C104.354 40.7783 103.91 42.5566 103.91 45.5474C103.91 48.9828 104.354 50.3165 105.365 51.1248C105.93 51.6503 106.698 51.7715 107.588 51.7715C108.517 51.7715 109.245 51.6098 109.851 51.1248C110.861 50.3165 111.346 48.9828 111.346 45.5474C111.346 42.5566 110.861 40.7783 109.851 39.9699ZM107.588 52.2969C104.112 52.2969 101.242 49.2657 101.242 45.5474C101.242 41.8291 104.112 38.7979 107.588 38.7979C111.144 38.7979 114.014 41.8291 114.014 45.5474C114.014 49.2657 111.144 52.2969 107.588 52.2969Z" fill="black"/>
<path d="M124.603 39.9703C123.997 39.4853 123.148 39.3236 122.34 39.3236C121.248 39.3236 119.955 39.8894 119.51 40.8999V49.8723C120.076 51.1656 121.531 51.8123 122.663 51.8123C123.471 51.8123 123.997 51.6506 124.603 51.1252C125.533 50.3169 126.018 48.5385 126.018 45.5882C126.018 42.7186 125.533 40.7786 124.603 39.9703ZM122.623 52.2973C121.45 52.2973 120.198 51.6506 119.47 50.8827V60.8251C119.47 60.8655 119.551 60.9059 119.672 60.9059H121.329C121.41 60.9059 121.41 61.3909 121.329 61.3909H115.024C114.984 61.3909 114.984 60.9059 115.024 60.9059H116.681C116.843 60.9059 116.924 60.8655 116.924 60.8251V39.6874C116.924 39.6065 116.843 39.5661 116.681 39.5661H115.024C114.984 39.5661 114.984 39.0811 115.024 39.0811H119.43C119.51 39.0811 119.51 39.1215 119.51 39.162V40.1319C120.076 39.4449 121.168 38.8386 122.34 38.8386C125.856 38.8386 128.685 42.274 128.685 45.6286C128.645 49.0235 126.179 52.2973 122.623 52.2973Z" fill="black"/>
<path d="M138.67 39.9703C138.185 39.4449 137.538 39.3236 136.892 39.3236C136.083 39.3236 135.315 39.4853 134.669 39.9703C133.82 40.6978 133.497 41.8699 133.375 44.3757H139.68C139.68 41.8699 139.438 40.6978 138.67 39.9703ZM142.227 44.8607H133.416C133.456 45.0628 133.456 45.3053 133.456 45.5478C133.456 48.9832 133.739 50.3169 134.709 51.1252C135.356 51.6506 136.083 51.7719 136.932 51.7719C139.074 51.7719 140.731 50.6806 141.782 49.1044C141.822 49.064 142.065 49.3065 142.065 49.3469C140.893 51.0848 139.074 52.2569 136.932 52.2569C133.375 52.2569 130.708 49.2257 130.708 45.5073C130.708 41.789 133.375 38.7578 136.932 38.7578C140.772 38.7578 142.348 42.557 142.348 44.699C142.307 44.8203 142.267 44.8607 142.227 44.8607Z" fill="black"/>
<path d="M151.843 42.7182C150.995 42.7182 150.469 42.2332 150.469 41.6674C150.469 40.9803 150.833 40.8995 150.833 40.3741C150.833 39.8487 150.51 39.5658 150.025 39.5658C149.095 39.5658 148.327 40.2124 147.761 42.4353V51.4078C147.761 51.4886 147.842 51.529 147.963 51.529H149.661C149.701 51.529 149.701 52.014 149.661 52.014H143.315C143.235 52.014 143.235 51.529 143.315 51.529H144.973C145.134 51.529 145.175 51.4886 145.175 51.4078V39.687C145.175 39.6062 145.094 39.5658 144.973 39.5658H143.315C143.235 39.5658 143.235 39.0808 143.315 39.0808H147.68C147.761 39.0808 147.761 39.1212 147.761 39.1616V41.1824C148.327 39.4041 149.297 38.7979 150.873 38.7979C152.369 38.7979 153.137 39.8083 153.137 41.0208C153.177 42.112 152.571 42.7182 151.843 42.7182Z" fill="black"/>
<path d="M159.361 52.2981C157.623 52.2981 156.774 51.2877 156.774 49.3072V39.6882C156.774 39.6073 156.733 39.5669 156.572 39.5669H154.47C154.43 39.5669 154.43 39.0819 154.47 39.0819H156.572C156.733 39.0819 156.774 39.0415 156.774 38.9607V35.7678C158.027 35.6061 158.633 34.7169 158.916 33.8682C158.916 33.8278 159.361 33.8278 159.361 33.8682V38.9607C159.361 39.0415 159.441 39.0819 159.563 39.0819H162.068C162.109 39.0819 162.109 39.5669 162.068 39.5669H159.563C159.441 39.5669 159.361 39.6073 159.361 39.6882V50.6006C159.361 51.1664 159.684 51.4897 160.209 51.4897C161.058 51.4897 161.745 50.6814 162.068 49.4285C162.109 49.3881 162.392 49.5902 162.392 49.6306C161.988 51.1664 161.098 52.2981 159.361 52.2981Z" fill="black"/>
<path d="M167.081 33.4229C166.151 33.4229 165.424 32.6145 165.424 31.6445C165.424 30.6745 166.151 29.8662 167.081 29.8662C168.011 29.8662 168.778 30.6745 168.778 31.6445C168.778 32.6549 168.011 33.4229 167.081 33.4229ZM163.888 52.0144C163.807 52.0144 163.807 51.5294 163.888 51.5294H165.545C165.747 51.5294 165.747 51.489 165.747 51.4081V39.6874C165.747 39.6066 165.707 39.5661 165.545 39.5661H163.888C163.807 39.5661 163.807 39.0811 163.888 39.0811H168.293C168.374 39.0811 168.374 39.1216 168.374 39.162V51.4081C168.374 51.489 168.455 51.5294 168.576 51.5294H170.274C170.355 51.5294 170.355 52.0144 170.274 52.0144H163.888Z" fill="black"/>
<path d="M179.329 39.9703C178.844 39.4449 178.197 39.3236 177.55 39.3236C176.742 39.3236 175.974 39.4853 175.327 39.9703C174.479 40.6978 174.155 41.8699 174.034 44.3757H180.339C180.339 41.8699 180.097 40.6978 179.329 39.9703ZM182.885 44.8607H174.074C174.115 45.0628 174.115 45.3053 174.115 45.5478C174.115 48.9832 174.398 50.3169 175.368 51.1252C176.014 51.6506 176.782 51.7719 177.591 51.7719C179.733 51.7719 181.39 50.6806 182.441 49.1044C182.481 49.064 182.764 49.3065 182.724 49.3469C181.592 51.0848 179.733 52.2569 177.591 52.2569C174.034 52.2569 171.367 49.2257 171.367 45.5073C171.367 41.789 174.034 38.7578 177.591 38.7578C181.43 38.7578 183.006 42.557 183.006 44.699C182.966 44.8203 182.966 44.8607 182.885 44.8607Z" fill="black"/>
<path d="M189.635 52.2979C187.897 52.2979 187.331 51.4896 186.442 51.4896C185.876 51.4896 185.432 51.8533 185.351 52.0554C185.351 52.1363 184.906 52.0958 184.906 52.0554L185.068 47.448C185.068 47.3671 185.512 47.3671 185.512 47.448C185.432 49.7921 187.291 51.8129 189.635 51.8129C191.292 51.8129 192.505 50.9642 192.505 49.1859C192.505 47.5288 191.211 47.1246 188.988 46.3971C186.887 45.7505 185.472 44.7805 185.472 42.8001C185.472 40.3347 187.17 38.8393 189.069 38.8393C190.403 38.8393 190.362 39.2839 191.575 39.2839C192.02 39.2839 192.222 38.9605 192.262 38.7989C192.262 38.7585 192.707 38.7585 192.707 38.7989V42.5172C192.707 42.598 192.262 42.598 192.262 42.5172C192.262 40.6984 190.565 39.3243 189.11 39.3243C187.614 39.3243 186.725 40.173 186.725 41.4259C186.725 42.9618 187.897 43.4467 190.16 44.1338C192.424 44.8209 194 45.9121 194 48.0138C193.919 50.4388 192.545 52.2979 189.635 52.2979Z" fill="black"/>
</svg>
