<svg width="223" height="72" viewBox="0 0 223 72" fill="none" xmlns="http://www.w3.org/2000/svg">
<path d="M72.0976 0.373047H0.941406V71.4832H72.0976V0.373047Z" fill="#E8222E"/>
<path d="M37.2086 34.1084H32.9688V38.0718H37.2086V34.1084Z" fill="white"/>
<path d="M30.6227 34.1084H26.3828V38.0718H30.6227V34.1084Z" fill="white"/>
<path d="M22.9238 41.113H19.3291V39.5922C19.3291 38.1174 19.8361 37.6105 21.1725 37.6105C21.7256 37.6105 22.3708 37.6566 22.9238 37.7027V34.108C22.0942 34.0619 21.2186 33.9697 20.3891 33.9697C16.4718 33.9697 14.5362 36.1818 14.5362 39.3157V41.113H11.6328V44.4772H14.5362V58.6255H19.3752V44.4772H22.9699V41.113H22.9238Z" fill="white"/>
<path d="M34.6284 51.8513C34.6284 52.9574 34.4902 55.9069 30.7111 55.9069C29.1442 55.9069 27.7617 55.446 27.7617 53.6487C27.7617 51.8974 29.1442 51.3444 30.619 51.0679C32.0937 50.7914 33.7989 50.7453 34.6284 50.054V51.8513ZM54.9983 40.6064C52.5557 40.6064 50.7584 41.989 49.6984 43.5098C48.7306 41.3899 46.795 40.6064 44.5829 40.6064C42.2786 40.6064 40.2969 41.7125 39.0526 43.602C37.9466 41.1134 34.5823 40.6064 31.725 40.6064C27.8077 40.6064 23.7522 41.989 23.4757 46.4593H28.3147C28.499 44.5698 29.6512 43.8324 31.4946 43.8324C33.1998 43.8324 34.6284 44.155 34.6284 46.1828C34.8128 50.1001 23.0148 45.8602 22.9688 53.833C22.9688 57.4277 25.5956 59.0868 28.9599 59.0868C31.1259 59.0868 33.338 58.4877 34.8588 56.9208V58.6259H39.4674V48.441C39.4674 45.0307 41.7717 44.3855 42.7395 44.3855C45.7811 44.3855 45.6429 46.7358 45.6429 48.7636V58.5798H50.4819V48.8097C50.4819 46.6437 50.9888 44.3855 53.7079 44.3855C56.473 44.3855 56.6573 46.3211 56.6573 48.6714V58.6259H61.4502V46.9202C61.4042 42.3577 58.7312 40.6064 54.9983 40.6064Z" fill="white"/>
<path d="M59.5153 35.7212C59.8379 35.7212 60.1605 35.7212 60.1605 35.3525C60.1605 35.076 59.9301 34.9838 59.6536 34.9838H59.1466V35.7212H59.5153ZM59.1466 36.9194H58.8701V34.7534H59.6996C60.2066 34.7534 60.3909 34.9838 60.3909 35.3525C60.3909 35.7212 60.1605 35.9055 59.8379 35.9516L60.4831 36.9194H60.2066L59.6075 35.9516H59.1466V36.9194ZM57.9945 35.8133C57.9945 36.689 58.6397 37.4263 59.5614 37.4263C60.4831 37.4263 61.1283 36.7351 61.1283 35.8133C61.1283 34.9377 60.437 34.2003 59.5614 34.2003C58.6397 34.2464 57.9945 34.9377 57.9945 35.8133ZM61.4048 35.8133C61.4048 36.8733 60.5753 37.6568 59.5153 37.6568C58.4553 37.6568 57.6719 36.8272 57.6719 35.8133C57.6719 34.7534 58.5014 33.9238 59.5153 33.9238C60.6214 33.9699 61.4048 34.7995 61.4048 35.8133Z" fill="white"/>
<path d="M92.558 34.6614H89.9311C89.7929 34.6614 89.7468 34.7075 89.7468 34.7997V47.7958C90.7146 48.2567 91.7746 48.3489 93.1571 48.3489C96.1988 48.3489 97.9961 46.7819 97.9961 41.7586C97.95 36.7814 95.6458 34.6614 92.558 34.6614ZM93.1111 48.9019C91.6824 48.9019 90.6224 48.7175 89.7007 48.4871V57.9347C89.7007 58.0268 89.7468 58.0729 89.8851 58.0729H92.7885C92.8345 58.0729 92.8345 58.6259 92.7885 58.6259H82.7879C82.6957 58.6259 82.6957 58.0729 82.7879 58.0729H85.6913C85.7834 58.0729 85.8756 58.0268 85.8756 57.9347V34.7997C85.8756 34.7075 85.8295 34.6614 85.6913 34.6614H82.7879C82.6957 34.6614 82.6957 34.1084 82.7879 34.1084H92.5119C98.457 34.1084 101.683 37.5648 101.683 41.8047C101.729 45.9524 98.2726 48.9019 93.1111 48.9019Z" fill="white"/>
<path d="M113.485 48.025C112.517 48.025 111.918 47.472 111.918 46.8268C111.918 46.0433 112.333 45.9511 112.333 45.352C112.333 44.7529 111.964 44.4303 111.411 44.4303C110.351 44.4303 109.476 45.1677 108.831 47.7024V57.9334C108.831 58.0256 108.923 58.0717 109.061 58.0717H110.997C111.043 58.0717 111.043 58.6247 110.997 58.6247H103.761C103.715 58.6247 103.715 58.0717 103.761 58.0717H105.651C105.835 58.0717 105.881 58.0256 105.881 57.9334V44.5686C105.881 44.4764 105.789 44.4303 105.651 44.4303H103.761C103.715 44.4303 103.715 43.8773 103.761 43.8773H108.738C108.831 43.8773 108.831 43.9234 108.831 43.9695V46.2737C109.476 44.246 110.582 43.5547 112.379 43.5547C114.084 43.5547 114.96 44.7068 114.96 46.0894C115.006 47.3337 114.315 48.025 113.485 48.025Z" fill="white"/>
<path d="M126.203 44.8912C125.558 44.2921 124.728 44.1538 123.622 44.1538C122.608 44.1538 121.733 44.3381 121.087 44.8912C119.935 45.8129 119.428 47.8407 119.428 51.251C119.428 55.1683 119.935 56.6891 121.087 57.6108C121.733 58.2099 122.608 58.3482 123.622 58.3482C124.682 58.3482 125.512 58.1638 126.203 57.6108C127.355 56.6891 127.908 55.1683 127.908 51.251C127.908 47.8407 127.355 45.8129 126.203 44.8912ZM123.622 58.9473C119.659 58.9473 116.387 55.4909 116.387 51.251C116.387 47.0111 119.659 43.5547 123.622 43.5547C127.678 43.5547 130.95 47.0111 130.95 51.251C130.95 55.4909 127.678 58.9473 123.622 58.9473Z" fill="white"/>
<path d="M143.023 44.891C142.332 44.338 141.364 44.1536 140.442 44.1536C139.198 44.1536 137.723 44.7988 137.216 45.951V56.182C137.862 57.6567 139.521 58.3941 140.811 58.3941C141.733 58.3941 142.332 58.2097 143.023 57.6106C144.083 56.6889 144.636 54.6611 144.636 51.2969C144.636 48.0248 144.083 45.8127 143.023 44.891ZM140.765 58.9471C139.429 58.9471 138 58.2097 137.17 57.3341V68.6712C137.17 68.7172 137.263 68.7633 137.401 68.7633H139.29C139.383 68.7633 139.383 69.3164 139.29 69.3164H132.101C132.055 69.3164 132.055 68.7633 132.101 68.7633H133.99C134.175 68.7633 134.267 68.7172 134.267 68.6712V44.5684C134.267 44.4762 134.175 44.4301 133.99 44.4301H132.101C132.055 44.4301 132.055 43.8771 132.101 43.8771H137.124C137.216 43.8771 137.216 43.9232 137.216 43.9693V45.0753C137.862 44.2919 139.106 43.6006 140.442 43.6006C144.452 43.6006 147.678 47.5179 147.678 51.343C147.632 55.2142 144.821 58.9471 140.765 58.9471Z" fill="white"/>
<path d="M159.063 44.8914C158.51 44.2922 157.773 44.154 157.035 44.154C156.114 44.154 155.238 44.3383 154.501 44.8914C153.533 45.7209 153.164 47.0574 153.026 49.9147H160.215C160.215 47.0574 159.939 45.7209 159.063 44.8914ZM163.119 50.4677H153.072C153.118 50.6981 153.118 50.9747 153.118 51.2512C153.118 55.1685 153.441 56.6893 154.547 57.611C155.284 58.2101 156.114 58.3484 157.082 58.3484C159.524 58.3484 161.414 57.104 162.612 55.3067C162.658 55.2606 162.934 55.5371 162.934 55.5832C161.598 57.5649 159.524 58.9014 157.082 58.9014C153.026 58.9014 149.984 55.445 149.984 51.2051C149.984 46.9652 153.026 43.5088 157.082 43.5088C161.46 43.5088 163.257 47.8408 163.257 50.2834C163.211 50.4216 163.165 50.4677 163.119 50.4677Z" fill="white"/>
<path d="M174.086 48.025C173.118 48.025 172.519 47.472 172.519 46.8268C172.519 46.0433 172.934 45.9511 172.934 45.352C172.934 44.7529 172.565 44.4303 172.012 44.4303C170.952 44.4303 170.077 45.1677 169.432 47.7024V57.9334C169.432 58.0256 169.524 58.0717 169.662 58.0717H171.598C171.644 58.0717 171.644 58.6247 171.598 58.6247H164.362C164.27 58.6247 164.27 58.0717 164.362 58.0717H166.252C166.436 58.0717 166.482 58.0256 166.482 57.9334V44.5686C166.482 44.4764 166.39 44.4303 166.252 44.4303H164.362C164.27 44.4303 164.27 43.8773 164.362 43.8773H169.339C169.432 43.8773 169.432 43.9234 169.432 43.9695V46.2737C170.077 44.246 171.183 43.5547 172.98 43.5547C174.685 43.5547 175.561 44.7068 175.561 46.0894C175.607 47.3337 174.916 48.025 174.086 48.025Z" fill="white"/>
<path d="M182.658 58.948C180.676 58.948 179.708 57.7959 179.708 55.5377V44.5693C179.708 44.4772 179.662 44.4311 179.478 44.4311H177.081C177.035 44.4311 177.035 43.878 177.081 43.878H179.478C179.662 43.878 179.708 43.832 179.708 43.7398V40.099C181.137 39.9147 181.828 38.9008 182.151 37.933C182.151 37.8869 182.658 37.8869 182.658 37.933V43.7398C182.658 43.832 182.75 43.878 182.888 43.878H185.746C185.792 43.878 185.792 44.4311 185.746 44.4311H182.888C182.75 44.4311 182.658 44.4772 182.658 44.5693V57.0124C182.658 57.6576 183.026 58.0263 183.626 58.0263C184.593 58.0263 185.377 57.1046 185.746 55.676C185.792 55.6299 186.114 55.8603 186.114 55.9064C185.653 57.6576 184.639 58.948 182.658 58.948Z" fill="white"/>
<path d="M191.46 37.4257C190.4 37.4257 189.57 36.5039 189.57 35.3979C189.57 34.2918 190.4 33.3701 191.46 33.3701C192.52 33.3701 193.395 34.2918 193.395 35.3979C193.395 36.55 192.52 37.4257 191.46 37.4257ZM187.819 58.625C187.727 58.625 187.727 58.072 187.819 58.072H189.709C189.939 58.072 189.939 58.0259 189.939 57.9337V44.5689C189.939 44.4768 189.893 44.4307 189.709 44.4307H187.819C187.727 44.4307 187.727 43.8776 187.819 43.8776H192.842C192.935 43.8776 192.935 43.9237 192.935 43.9698V57.9337C192.935 58.0259 193.027 58.072 193.165 58.072H195.101C195.193 58.072 195.193 58.625 195.101 58.625H187.819Z" fill="white"/>
<path d="M205.423 44.8914C204.87 44.2922 204.132 44.154 203.395 44.154C202.473 44.154 201.598 44.3383 200.86 44.8914C199.893 45.7209 199.524 47.0574 199.386 49.9147H206.575C206.575 47.0574 206.298 45.7209 205.423 44.8914ZM209.478 50.4677H199.432C199.478 50.6981 199.478 50.9747 199.478 51.2512C199.478 55.1685 199.8 56.6893 200.906 57.611C201.644 58.2101 202.519 58.3484 203.441 58.3484C205.884 58.3484 207.773 57.104 208.971 55.3067C209.017 55.2606 209.34 55.5371 209.294 55.5832C208.004 57.5649 205.884 58.9014 203.441 58.9014C199.386 58.9014 196.344 55.445 196.344 51.2051C196.344 46.9652 199.386 43.5088 203.441 43.5088C207.819 43.5088 209.617 47.8408 209.617 50.2834C209.57 50.4216 209.57 50.4677 209.478 50.4677Z" fill="white"/>
<path d="M217.173 58.9477C215.192 58.9477 214.546 58.026 213.533 58.026C212.887 58.026 212.38 58.4407 212.288 58.6712C212.288 58.7633 211.781 58.7172 211.781 58.6712L211.966 53.4174C211.966 53.3252 212.473 53.3252 212.473 53.4174C212.38 56.0904 214.5 58.3946 217.173 58.3946C219.063 58.3946 220.445 57.4268 220.445 55.3991C220.445 53.5096 218.971 53.0487 216.436 52.2192C214.039 51.4818 212.426 50.3757 212.426 48.1175C212.426 45.3063 214.362 43.6012 216.528 43.6012C218.049 43.6012 218.003 44.1081 219.385 44.1081C219.892 44.1081 220.123 43.7394 220.169 43.5551C220.169 43.509 220.676 43.509 220.676 43.5551V47.795C220.676 47.8871 220.169 47.8871 220.169 47.795C220.169 45.7211 218.233 44.1542 216.574 44.1542C214.869 44.1542 213.855 45.122 213.855 46.5506C213.855 48.3019 215.192 48.8549 217.772 49.6384C220.353 50.4218 222.151 51.6661 222.151 54.0626C222.058 56.8277 220.491 58.9477 217.173 58.9477Z" fill="white"/>
</svg>
