<svg width="189" height="26" viewBox="0 0 189 26" fill="none" xmlns="http://www.w3.org/2000/svg">
<path d="M188.62 18.1426H176.09V20.927H188.62V18.1426Z" fill="white"/>
<path d="M188.48 4.91568V2.27051H176.09V16.1925H188.48V13.4081H178.874V10.3452V7.56085V4.91568H188.48Z" fill="white"/>
<path d="M83.0898 23.7103V2.27051H85.8742V23.8495H83.0898V23.7103Z" fill="white"/>
<path d="M106.202 2.27051H91.0273V5.0549H106.202V2.27051Z" fill="white"/>
<path d="M91.0273 6.72656V9.51095H97.2922V20.9269H99.9374V9.51095H106.202V6.72656H99.9374H91.0273Z" fill="white"/>
<path d="M38.5401 2.27051H23.3652V5.0549H38.5401V2.27051Z" fill="white"/>
<path d="M23.3652 6.72656V9.37173H29.63V20.9269H32.4144V9.37173H38.5401V6.72656H23.3652Z" fill="white"/>
<path d="M52.6016 3.94162C56.7782 3.94162 60.2587 7.4221 60.2587 11.5987C60.2587 15.7753 56.7782 19.2558 52.6016 19.2558C48.425 19.2558 44.9445 15.7753 44.9445 11.5987C44.9445 7.28288 48.425 3.94162 52.6016 3.94162ZM52.6016 1.15723C46.8936 1.15723 42.1602 5.89069 42.1602 11.5987C42.1602 17.3067 46.8936 22.0401 52.6016 22.0401C58.3096 22.0401 63.0431 17.3067 63.0431 11.5987C63.0431 5.75147 58.3096 1.15723 52.6016 1.15723Z" fill="white"/>
<path d="M120.262 3.94162C124.438 3.94162 127.919 7.4221 127.919 11.5987C127.919 15.7753 124.438 19.2558 120.262 19.2558C116.085 19.2558 112.605 15.7753 112.605 11.5987C112.605 7.28288 116.085 3.94162 120.262 3.94162ZM120.262 1.15723C114.554 1.15723 109.82 5.89069 109.82 11.5987C109.82 17.3067 114.554 22.0401 120.262 22.0401C125.97 22.0401 130.703 17.3067 130.703 11.5987C130.703 5.75147 126.109 1.15723 120.262 1.15723Z" fill="white"/>
<path d="M139.754 20.9255V2.13086H150.613V4.91525H142.538V20.9255H139.754Z" fill="white"/>
<path d="M162.027 20.2305V4.08105H164.812V20.2305H162.027Z" fill="white"/>
<path d="M177.758 7.42188H183.605V10.2063H177.758V7.42188Z" fill="white"/>
<path d="M169.545 18.1411V2.13086H156.319V6.029C156.319 7.14276 156.319 8.11729 156.18 9.23105C156.041 10.3448 155.901 11.4586 155.623 12.4331C155.345 13.5469 154.927 14.5214 154.509 15.4959C154.092 16.4705 153.535 17.1666 152.839 18.0019H151.168V20.7863H171.216V18.0019H169.545V18.1411ZM156.041 18.1411C157.154 16.3312 157.85 14.5214 158.268 12.4331C158.686 10.3448 158.964 8.25651 158.964 6.16822V4.91525H166.761V18.1411H156.041Z" fill="white"/>
<path d="M2.36228 0.000337519L0 2.36328L2.36294 4.72556L4.72522 2.36261L2.36228 0.000337519Z" fill="white"/>
<path d="M85.4323 21.2748L83.0701 23.6377L85.433 26L87.7953 23.637L85.4323 21.2748Z" fill="white"/>
<path d="M151.323 18.0804L148.961 20.4434L151.324 22.8056L153.686 20.4427L151.323 18.0804Z" fill="white"/>
<path d="M78.2165 12.1551V18.9768L81.0009 21.7612V2.27051H78.2165V6.30787C78.2165 7.00397 78.0772 7.70007 77.938 8.25694C77.7988 8.81382 77.3811 9.3707 77.1027 9.78836C76.6851 10.206 76.2674 10.4845 75.7105 10.7629C75.1536 11.0413 74.4575 11.1806 73.7614 11.1806C73.0653 11.1806 72.5085 11.0413 71.9516 10.9021C71.3947 10.6237 70.9771 10.3452 70.5594 9.92758C70.1417 9.50992 69.8633 9.09226 69.5849 8.53538C69.3064 7.9785 69.1672 7.42163 69.1672 6.72553V2.27051H66.3828V6.86475C66.3828 7.83929 66.522 8.81382 66.9397 9.64914C67.3573 10.4845 67.775 11.3198 68.4711 11.8766C69.1672 12.5727 69.8633 12.9904 70.8378 13.4081C71.6732 13.8257 72.6477 13.9649 73.7614 13.9649C74.5968 13.9649 75.4321 13.8257 76.2674 13.4081C76.9635 13.1296 77.6596 12.712 78.2165 12.1551Z" fill="white"/>
<path d="M4.57031 10.3452L12.7843 2.27051H16.6824L10.9744 7.9785L24.061 20.9259H20.1629L9.02533 9.92758L7.77236 11.0413L17.6569 20.9259H13.7588L4.57031 11.7374" fill="white"/>
<path d="M4.5715 2.27051H1.78711V20.9259H4.5715V2.27051Z" fill="white"/>
</svg>
