<svg width="33" height="46" viewBox="0 0 33 46" fill="none" xmlns="http://www.w3.org/2000/svg">
<path d="M16.0417 45.0783C15.9527 44.9764 15.8487 44.8568 15.7312 44.7203C15.2953 44.2145 14.6719 43.4775 13.9234 42.5552C12.4259 40.7101 10.4301 38.1262 8.43532 35.1696C6.43955 32.2116 4.45095 28.8896 2.96281 25.5679C1.47174 22.2396 0.5 18.9483 0.5 16.0417C0.5 7.44906 7.44906 0.5 16.0417 0.5C24.6343 0.5 31.5833 7.44906 31.5833 16.0417C31.5833 18.9483 30.6116 22.2396 29.1205 25.5679C27.6324 28.8896 25.6438 32.2116 23.648 35.1696C21.6532 38.1262 19.6574 40.7101 18.1599 42.5552C17.4114 43.4775 16.788 44.2145 16.3522 44.7203C16.2346 44.8568 16.1307 44.9764 16.0417 45.0783ZM9.8125 16.0417C9.8125 19.4803 12.603 22.2708 16.0417 22.2708C19.4803 22.2708 22.2708 19.4803 22.2708 16.0417C22.2708 12.603 19.4803 9.8125 16.0417 9.8125C12.603 9.8125 9.8125 12.603 9.8125 16.0417Z" fill="#E8222E" stroke="#EF724B"/>
</svg>
